<svg width="22" height="21" viewBox="0 0 22 21" fill="none" xmlns="http://www.w3.org/2000/svg">
<path d="M16.781 14.617L21.064 18.899L19.649 20.314L15.367 16.031C13.7737 17.3082 11.792 18.0029 9.75 18C4.782 18 0.75 13.968 0.75 9C0.75 4.032 4.782 0 9.75 0C14.718 0 18.75 4.032 18.75 9C18.7529 11.042 18.0582 13.0237 16.781 14.617ZM14.775 13.875C16.0438 12.5697 16.7525 10.8204 16.75 9C16.75 5.133 13.617 2 9.75 2C5.883 2 2.75 5.133 2.75 9C2.75 12.867 5.883 16 9.75 16C11.5704 16.0025 13.3197 15.2938 14.625 14.025L14.775 13.875Z" fill="#FEFEFE"/>
</svg>
